<svg width="142" height="43" viewBox="0 0 142 43" fill="none" xmlns="http://www.w3.org/2000/svg">
<path d="M81 14.8C81 10.3196 81 8.07937 81.8719 6.36808C82.6389 4.86278 83.8628 3.63893 85.3681 2.87195C87.0794 2 89.3196 2 93.8 2H129.2C133.68 2 135.921 2 137.632 2.87195C139.137 3.63893 140.361 4.86278 141.128 6.36808C142 8.07937 142 10.3196 142 14.8V29.2C142 33.6804 142 35.9206 141.128 37.6319C140.361 39.1372 139.137 40.3611 137.632 41.1281C135.921 42 133.68 42 129.2 42H93.8C89.3196 42 87.0794 42 85.3681 41.1281C83.8628 40.3611 82.6389 39.1372 81.8719 37.6319C81 35.9206 81 33.6804 81 29.2V14.8Z" fill="#00ACFF"/>
<path d="M92.8848 13.9805L93.043 16.1074C94.3906 14.4551 96.2129 13.6289 98.5098 13.6289C100.959 13.6289 102.641 14.5957 103.555 16.5293C104.891 14.5957 106.795 13.6289 109.268 13.6289C111.33 13.6289 112.865 14.2324 113.873 15.4395C114.881 16.6348 115.385 18.4395 115.385 20.8535V33H110.287V20.8711C110.287 19.793 110.076 19.0078 109.654 18.5156C109.232 18.0117 108.488 17.7598 107.422 17.7598C105.898 17.7598 104.844 18.4863 104.258 19.9395L104.275 33H99.1953V20.8887C99.1953 19.7871 98.9785 18.9902 98.5449 18.498C98.1113 18.0059 97.373 17.7598 96.3301 17.7598C94.8887 17.7598 93.8457 18.3574 93.2012 19.5527V33H88.1211V13.9805H92.8848ZM128.059 33.3516C125.27 33.3516 122.996 32.4961 121.238 30.7852C119.492 29.0742 118.619 26.7949 118.619 23.9473V23.4551C118.619 21.5449 118.988 19.8398 119.727 18.3398C120.465 16.8281 121.508 15.668 122.855 14.8594C124.215 14.0391 125.762 13.6289 127.496 13.6289C130.098 13.6289 132.143 14.4492 133.631 16.0898C135.131 17.7305 135.881 20.0566 135.881 23.0684V25.1426H123.77C123.934 26.3848 124.426 27.3809 125.246 28.1309C126.078 28.8809 127.127 29.2559 128.393 29.2559C130.35 29.2559 131.879 28.5469 132.98 27.1289L135.477 29.9238C134.715 31.002 133.684 31.8457 132.383 32.4551C131.082 33.0527 129.641 33.3516 128.059 33.3516ZM127.479 17.7422C126.471 17.7422 125.65 18.082 125.018 18.7617C124.396 19.4414 123.998 20.4141 123.822 21.6797H130.889V21.2754C130.865 20.1504 130.561 19.2832 129.975 18.6738C129.389 18.0527 128.557 17.7422 127.479 17.7422Z" fill="white"/>
<path d="M22.7949 25.4746C22.5957 28.2285 21.5762 30.3965 19.7363 31.9785C17.9082 33.5605 15.4941 34.3516 12.4941 34.3516C9.21289 34.3516 6.62891 33.25 4.74219 31.0469C2.86719 28.832 1.92969 25.7969 1.92969 21.9414V20.377C1.92969 17.916 2.36328 15.748 3.23047 13.873C4.09766 11.998 5.33398 10.5625 6.93945 9.56641C8.55664 8.55859 10.4316 8.05469 12.5645 8.05469C15.5176 8.05469 17.8965 8.8457 19.7012 10.4277C21.5059 12.0098 22.5488 14.2305 22.8301 17.0898H17.5566C17.4277 15.4375 16.9648 14.2422 16.168 13.5039C15.3828 12.7539 14.1816 12.3789 12.5645 12.3789C10.8066 12.3789 9.48828 13.0117 8.60938 14.2773C7.74219 15.5312 7.29688 17.4824 7.27344 20.1309V22.0645C7.27344 24.8301 7.68945 26.8516 8.52148 28.1289C9.36523 29.4062 10.6895 30.0449 12.4941 30.0449C14.123 30.0449 15.3359 29.6758 16.1328 28.9375C16.9414 28.1875 17.4043 27.0332 17.5215 25.4746H22.7949ZM30.8809 17.0547C32.2285 15.4375 33.9219 14.6289 35.9609 14.6289C40.0859 14.6289 42.1777 17.0254 42.2363 21.8184V34H37.1562V21.959C37.1562 20.8691 36.9219 20.0664 36.4531 19.5508C35.9844 19.0234 35.2051 18.7598 34.1152 18.7598C32.627 18.7598 31.5488 19.334 30.8809 20.4824V34H25.8008V7H30.8809V17.0547ZM57.0898 34C56.8555 33.543 56.6855 32.9746 56.5801 32.2949C55.3496 33.666 53.75 34.3516 51.7812 34.3516C49.918 34.3516 48.3711 33.8125 47.1406 32.7344C45.9219 31.6562 45.3125 30.2969 45.3125 28.6562C45.3125 26.6406 46.0566 25.0938 47.5449 24.0156C49.0449 22.9375 51.207 22.3926 54.0312 22.3809H56.3691V21.291C56.3691 20.4121 56.1406 19.709 55.6836 19.1816C55.2383 18.6543 54.5293 18.3906 53.5566 18.3906C52.7012 18.3906 52.0273 18.5957 51.5352 19.0059C51.0547 19.416 50.8145 19.9785 50.8145 20.6934H45.7344C45.7344 19.5918 46.0742 18.5723 46.7539 17.6348C47.4336 16.6973 48.3945 15.9648 49.6367 15.4375C50.8789 14.8984 52.2734 14.6289 53.8203 14.6289C56.1641 14.6289 58.0215 15.2207 59.3926 16.4043C60.7754 17.5762 61.4668 19.2285 61.4668 21.3613V29.6055C61.4785 31.4102 61.7305 32.7754 62.2227 33.7012V34H57.0898ZM52.8887 30.4668C53.6387 30.4668 54.3301 30.3027 54.9629 29.9746C55.5957 29.6348 56.0645 29.1836 56.3691 28.6211V25.3516H54.4707C51.9277 25.3516 50.5742 26.2305 50.4102 27.9883L50.3926 28.2871C50.3926 28.9199 50.6152 29.4414 51.0605 29.8516C51.5059 30.2617 52.1152 30.4668 52.8887 30.4668ZM71.4512 10.3047V14.9805H74.7031V18.707H71.4512V28.1992C71.4512 28.9023 71.5859 29.4062 71.8555 29.7109C72.125 30.0156 72.6406 30.168 73.4023 30.168C73.9648 30.168 74.4629 30.127 74.8965 30.0449V33.8945C73.9004 34.1992 72.875 34.3516 71.8203 34.3516C68.2578 34.3516 66.4414 32.5527 66.3711 28.9551V18.707H63.5938V14.9805H66.3711V10.3047H71.4512Z" fill="#00ACFF"/>
</svg>
