<svg width="204" height="42" viewBox="0 0 204 42" fill="none" xmlns="http://www.w3.org/2000/svg">
<path d="M22.377 26.4746C22.1777 29.2285 21.1582 31.3965 19.3184 32.9785C17.4902 34.5605 15.0762 35.3516 12.0762 35.3516C8.79492 35.3516 6.21094 34.25 4.32422 32.0469C2.44922 29.832 1.51172 26.7969 1.51172 22.9414V21.377C1.51172 18.916 1.94531 16.748 2.8125 14.873C3.67969 12.998 4.91602 11.5625 6.52148 10.5664C8.13867 9.55859 10.0137 9.05469 12.1465 9.05469C15.0996 9.05469 17.4785 9.8457 19.2832 11.4277C21.0879 13.0098 22.1309 15.2305 22.4121 18.0898H17.1387C17.0098 16.4375 16.5469 15.2422 15.75 14.5039C14.9648 13.7539 13.7637 13.3789 12.1465 13.3789C10.3887 13.3789 9.07031 14.0117 8.19141 15.2773C7.32422 16.5312 6.87891 18.4824 6.85547 21.1309V23.0645C6.85547 25.8301 7.27148 27.8516 8.10352 29.1289C8.94727 30.4062 10.2715 31.0449 12.0762 31.0449C13.7051 31.0449 14.918 30.6758 15.7148 29.9375C16.5234 29.1875 16.9863 28.0332 17.1035 26.4746H22.377ZM24.7148 25.3145C24.7148 23.4277 25.0781 21.7461 25.8047 20.2695C26.5312 18.793 27.5742 17.6504 28.9336 16.8418C30.3047 16.0332 31.8926 15.6289 33.6973 15.6289C36.2637 15.6289 38.3555 16.4141 39.9727 17.9844C41.6016 19.5547 42.5098 21.6875 42.6973 24.3828L42.7324 25.6836C42.7324 28.6016 41.918 30.9453 40.2891 32.7148C38.6602 34.4727 36.4746 35.3516 33.7324 35.3516C30.9902 35.3516 28.7988 34.4727 27.1582 32.7148C25.5293 30.957 24.7148 28.5664 24.7148 25.543V25.3145ZM29.7949 25.6836C29.7949 27.4883 30.1348 28.8711 30.8145 29.832C31.4941 30.7812 32.4668 31.2559 33.7324 31.2559C34.9629 31.2559 35.9238 30.7871 36.6152 29.8496C37.3066 28.9004 37.6523 27.3887 37.6523 25.3145C37.6523 23.5449 37.3066 22.1738 36.6152 21.2012C35.9238 20.2285 34.9512 19.7422 33.6973 19.7422C32.4551 19.7422 31.4941 20.2285 30.8145 21.2012C30.1348 22.1621 29.7949 23.6562 29.7949 25.6836ZM50.5371 15.9805L50.6953 18.1777C52.0547 16.4785 53.877 15.6289 56.1621 15.6289C58.1777 15.6289 59.6777 16.2207 60.6621 17.4043C61.6465 18.5879 62.1504 20.3574 62.1738 22.7129V35H57.0938V22.8359C57.0938 21.7578 56.8594 20.9785 56.3906 20.498C55.9219 20.0059 55.1426 19.7598 54.0527 19.7598C52.623 19.7598 51.5508 20.3691 50.8359 21.5879V35H45.7559V15.9805H50.5371ZM70.7168 15.9805L70.875 18.1777C72.2344 16.4785 74.0566 15.6289 76.3418 15.6289C78.3574 15.6289 79.8574 16.2207 80.8418 17.4043C81.8262 18.5879 82.3301 20.3574 82.3535 22.7129V35H77.2734V22.8359C77.2734 21.7578 77.0391 20.9785 76.5703 20.498C76.1016 20.0059 75.3223 19.7598 74.2324 19.7598C72.8027 19.7598 71.7305 20.3691 71.0156 21.5879V35H65.9355V15.9805H70.7168ZM94.9746 35.3516C92.1855 35.3516 89.9121 34.4961 88.1543 32.7852C86.4082 31.0742 85.5352 28.7949 85.5352 25.9473V25.4551C85.5352 23.5449 85.9043 21.8398 86.6426 20.3398C87.3809 18.8281 88.4238 17.668 89.7715 16.8594C91.1309 16.0391 92.6777 15.6289 94.4121 15.6289C97.0137 15.6289 99.0586 16.4492 100.547 18.0898C102.047 19.7305 102.797 22.0566 102.797 25.0684V27.1426H90.6855C90.8496 28.3848 91.3418 29.3809 92.1621 30.1309C92.9941 30.8809 94.043 31.2559 95.3086 31.2559C97.2656 31.2559 98.7949 30.5469 99.8965 29.1289L102.393 31.9238C101.631 33.002 100.6 33.8457 99.2988 34.4551C97.998 35.0527 96.5566 35.3516 94.9746 35.3516ZM94.3945 19.7422C93.3867 19.7422 92.5664 20.082 91.9336 20.7617C91.3125 21.4414 90.9141 22.4141 90.7383 23.6797H97.8047V23.2754C97.7812 22.1504 97.4766 21.2832 96.8906 20.6738C96.3047 20.0527 95.4727 19.7422 94.3945 19.7422ZM113.607 31.2559C114.545 31.2559 115.307 30.998 115.893 30.4824C116.479 29.9668 116.783 29.2812 116.807 28.4258H121.57C121.559 29.7148 121.207 30.8984 120.516 31.9766C119.824 33.043 118.875 33.875 117.668 34.4727C116.473 35.0586 115.148 35.3516 113.695 35.3516C110.977 35.3516 108.832 34.4902 107.262 32.7676C105.691 31.0332 104.906 28.6426 104.906 25.5957V25.2617C104.906 22.332 105.686 19.9941 107.244 18.248C108.803 16.502 110.941 15.6289 113.66 15.6289C116.039 15.6289 117.943 16.3086 119.373 17.668C120.814 19.0156 121.547 20.8145 121.57 23.0645H116.807C116.783 22.0801 116.479 21.2832 115.893 20.6738C115.307 20.0527 114.533 19.7422 113.572 19.7422C112.389 19.7422 111.492 20.1758 110.883 21.043C110.285 21.8984 109.986 23.293 109.986 25.2266V25.7539C109.986 27.7109 110.285 29.1172 110.883 29.9727C111.48 30.8281 112.389 31.2559 113.607 31.2559ZM130.553 11.3047V15.9805H133.805V19.707H130.553V29.1992C130.553 29.9023 130.688 30.4062 130.957 30.7109C131.227 31.0156 131.742 31.168 132.504 31.168C133.066 31.168 133.564 31.127 133.998 31.0449V34.8945C133.002 35.1992 131.977 35.3516 130.922 35.3516C127.359 35.3516 125.543 33.5527 125.473 29.9551V19.707H122.695V15.9805H125.473V11.3047H130.553Z" fill="#00ACFF"/>
<path d="M140 14.8C140 10.3196 140 8.07937 140.872 6.36808C141.639 4.86278 142.863 3.63893 144.368 2.87195C146.079 2 148.32 2 152.8 2H191.2C195.68 2 197.921 2 199.632 2.87195C201.137 3.63893 202.361 4.86278 203.128 6.36808C204 8.07937 204 10.3196 204 14.8V29.2C204 33.6804 204 35.9206 203.128 37.6319C202.361 39.1372 201.137 40.3611 199.632 41.1281C197.921 42 195.68 42 191.2 42H152.8C148.32 42 146.079 42 144.368 41.1281C142.863 40.3611 141.639 39.1372 140.872 37.6319C140 35.9206 140 33.6804 140 29.2V14.8Z" fill="#00ACFF"/>
<path d="M153.885 13.9805L154.043 16.1074C155.391 14.4551 157.213 13.6289 159.51 13.6289C161.959 13.6289 163.641 14.5957 164.555 16.5293C165.891 14.5957 167.795 13.6289 170.268 13.6289C172.33 13.6289 173.865 14.2324 174.873 15.4395C175.881 16.6348 176.385 18.4395 176.385 20.8535V33H171.287V20.8711C171.287 19.793 171.076 19.0078 170.654 18.5156C170.232 18.0117 169.488 17.7598 168.422 17.7598C166.898 17.7598 165.844 18.4863 165.258 19.9395L165.275 33H160.195V20.8887C160.195 19.7871 159.979 18.9902 159.545 18.498C159.111 18.0059 158.373 17.7598 157.33 17.7598C155.889 17.7598 154.846 18.3574 154.201 19.5527V33H149.121V13.9805H153.885ZM189.059 33.3516C186.27 33.3516 183.996 32.4961 182.238 30.7852C180.492 29.0742 179.619 26.7949 179.619 23.9473V23.4551C179.619 21.5449 179.988 19.8398 180.727 18.3398C181.465 16.8281 182.508 15.668 183.855 14.8594C185.215 14.0391 186.762 13.6289 188.496 13.6289C191.098 13.6289 193.143 14.4492 194.631 16.0898C196.131 17.7305 196.881 20.0566 196.881 23.0684V25.1426H184.77C184.934 26.3848 185.426 27.3809 186.246 28.1309C187.078 28.8809 188.127 29.2559 189.393 29.2559C191.35 29.2559 192.879 28.5469 193.98 27.1289L196.477 29.9238C195.715 31.002 194.684 31.8457 193.383 32.4551C192.082 33.0527 190.641 33.3516 189.059 33.3516ZM188.479 17.7422C187.471 17.7422 186.65 18.082 186.018 18.7617C185.396 19.4414 184.998 20.4141 184.822 21.6797H191.889V21.2754C191.865 20.1504 191.561 19.2832 190.975 18.6738C190.389 18.0527 189.557 17.7422 188.479 17.7422Z" fill="white"/>
</svg>
