<svg width="34" height="34" viewBox="0 0 34 34" fill="none" xmlns="http://www.w3.org/2000/svg">
<g clip-path="url(#clip0_1_95)">
<path fill-rule="evenodd" clip-rule="evenodd" d="M14.1624 18.1474L12.5531 24.9286C12.4824 25.2256 12.6613 25.4002 12.7426 25.4617C12.8239 25.5232 13.0396 25.6512 13.3104 25.5049L27.4652 17.8172C27.7149 17.6807 27.7424 17.4453 27.7424 17.3519C27.7438 17.26 27.7141 17.0309 27.4737 16.8965L13.3443 9.16786C13.0763 9.02149 12.8571 9.15019 12.7758 9.21171C12.6931 9.27464 12.5099 9.45212 12.5778 9.75052L14.1674 16.6476L21.7052 16.608C22.1188 16.6059 22.4568 16.9397 22.4596 17.354C22.4625 17.7684 22.1273 18.1064 21.7136 18.1085L14.1624 18.1474ZM11.6225 26.4715C11.1304 25.9793 10.9296 25.2779 11.0936 24.5821L12.8006 17.3922L11.1169 10.0871C10.9359 9.29939 11.223 8.50601 11.8693 8.0167C12.5149 7.52667 13.3556 7.46515 14.0635 7.85194L28.1929 15.5806C28.8427 15.9363 29.2422 16.6144 29.2436 17.354C29.2415 18.0972 28.8349 18.7796 28.1801 19.1345L14.026 26.8215C13.3146 27.209 12.4739 27.1446 11.8318 26.6539C11.7569 26.5959 11.6876 26.5365 11.6225 26.4715Z" fill="black" fill-opacity="0.64"/>
</g>
<defs>
<clipPath id="clip0_1_95">
<rect width="24" height="24" fill="white" transform="translate(17 0.0294189) rotate(45)"/>
</clipPath>
</defs>
</svg>
